<?xml version="1.0" encoding="UTF-8" standalone="no"?>
<!-- Created with Inkscape (http://www.inkscape.org/) -->

<svg
   xmlns:dc="http://purl.org/dc/elements/1.1/"
   xmlns:cc="http://creativecommons.org/ns#"
   xmlns:rdf="http://www.w3.org/1999/02/22-rdf-syntax-ns#"
   xmlns:svg="http://www.w3.org/2000/svg"
   xmlns="http://www.w3.org/2000/svg"
   xmlns:sodipodi="http://sodipodi.sourceforge.net/DTD/sodipodi-0.dtd"
   xmlns:inkscape="http://www.inkscape.org/namespaces/inkscape"
   width="64"
   height="64"
   viewBox="0 0 64.000001 64.000001"
   id="svg2"
   version="1.1"
   inkscape:version="0.91 r13725"
   sodipodi:docname="icon.svg">
  <defs
     id="defs4">
    <inkscape:perspective
       sodipodi:type="inkscape:persp3d"
       inkscape:vp_x="0 : 372.04724 : 1"
       inkscape:vp_y="0 : 1000 : 0"
       inkscape:vp_z="1052.3622 : 372.04724 : 1"
       inkscape:persp3d-origin="526.1811 : 248.0315 : 1"
       id="perspective4144" />
  </defs>
  <sodipodi:namedview
     id="base"
     pagecolor="#ffffff"
     bordercolor="#666666"
     borderopacity="1.0"
     inkscape:pageopacity="0.0"
     inkscape:pageshadow="2"
     inkscape:zoom="1.4595735"
     inkscape:cx="80.349278"
     inkscape:cy="-32.52194"
     inkscape:document-units="px"
     inkscape:current-layer="layer1"
     showgrid="false"
     inkscape:window-width="1238"
     inkscape:window-height="1001"
     inkscape:window-x="42"
     inkscape:window-y="0"
     inkscape:window-maximized="1"
     units="px" />
  <metadata
     id="metadata7">
    <rdf:RDF>
      <cc:Work
         rdf:about="">
        <dc:format>image/svg+xml</dc:format>
        <dc:type
           rdf:resource="http://purl.org/dc/dcmitype/StillImage" />
        <dc:title></dc:title>
      </cc:Work>
    </rdf:RDF>
  </metadata>
  <g
     inkscape:label="Layer 1"
     inkscape:groupmode="layer"
     id="layer1"
     transform="translate(0,-988.36217)">
    <g
       id="i64"
       inkscape:label="#g4483">
      <g
         transform="translate(-120.54681,62.862926)"
         id="g4473">
        <path
           inkscape:connector-curvature="0"
           id="path4312-6"
           d="m 129.12063,929.05676 c -0.42238,0.2948 -0.73173,0.7515 -0.82948,1.301 l -7.66537,43.09127 c -0.19552,1.0991 0.53185,2.1413 1.63094,2.3368 l 43.09127,7.6653 c 0.54955,0.098 1.08488,-0.035 1.50726,-0.3299 l -37.73462,-54.06447 z"
           style="opacity:1;fill:#00b561;fill-opacity:1;stroke:#00b561;stroke-width:0.09453182;stroke-linecap:butt;stroke-linejoin:bevel;stroke-miterlimit:4;stroke-dasharray:none;stroke-dashoffset:0;stroke-opacity:1" />
        <path
           inkscape:connector-curvature="0"
           id="path4314-1"
           d="m 129.12063,929.05676 37.73462,54.06447 c 0.42238,-0.2948 0.73188,-0.7516 0.82964,-1.3011 l 7.66536,-43.0913 c 0.19552,-1.0991 -0.53185,-2.1413 -1.63094,-2.3368 l -43.09127,-7.66527 c -0.54954,-0.098 -1.08503,0.035 -1.50741,0.33 z"
           style="opacity:1;fill:#00ca61;fill-opacity:1;stroke:#00b561;stroke-width:0.09453182;stroke-linecap:butt;stroke-linejoin:bevel;stroke-miterlimit:4;stroke-dasharray:none;stroke-dashoffset:0;stroke-opacity:1" />
        <path
           style="opacity:1;fill:#f89e20;fill-opacity:1;stroke:#f89e20;stroke-width:0.09453182;stroke-linecap:butt;stroke-linejoin:bevel;stroke-miterlimit:4;stroke-dasharray:none;stroke-dashoffset:0;stroke-opacity:1"
           d="m 140.20129,927.88326 c -0.46276,0.2263 -0.83875,0.6298 -1.02,1.1578 l -14.2118,41.39607 c -0.36249,1.0559 0.19566,2.1976 1.25152,2.5601 l 41.39613,14.2118 c 0.52793,0.1813 1.07734,0.1324 1.5401,-0.094 l -28.95595,-59.23197 z"
           id="path4318-3"
           inkscape:connector-curvature="0" />
        <path
           style="opacity:1;fill:#f8b520;fill-opacity:1;stroke:#f89e20;stroke-width:0.09453182;stroke-linecap:butt;stroke-linejoin:bevel;stroke-miterlimit:4;stroke-dasharray:none;stroke-dashoffset:0;stroke-opacity:1"
           d="m 140.20129,927.88326 28.95595,59.23197 c 0.46275,-0.2262 0.83892,-0.6299 1.02016,-1.1578 l 14.21179,-41.3961 c 0.36249,-1.0559 -0.19566,-2.1976 -1.25151,-2.5601 l -41.39613,-14.21177 c -0.52793,-0.1813 -1.07751,-0.1324 -1.54026,0.094 z"
           id="path4320-2"
           inkscape:connector-curvature="0" />
        <path
           style="opacity:1;fill:#ce3ad9;fill-opacity:1;stroke:#b43ad9;stroke-width:0.09453182;stroke-linecap:butt;stroke-linejoin:bevel;stroke-miterlimit:4;stroke-dasharray:none;stroke-dashoffset:0;stroke-opacity:1"
           d="m 131.99464,985.92893 c 0.41531,0.3047 0.94737,0.4502 1.49907,0.3654 l 43.26017,-6.6462 c 1.10341,-0.1695 1.85517,-1.1942 1.68565,-2.2976 l -6.64619,-43.26017 c -0.0848,-0.5517 -0.38325,-1.0155 -0.79856,-1.3202 l -39.00014,53.15877 z"
           id="path4324-1"
           inkscape:connector-curvature="0" />
        <path
           style="opacity:1;fill:#b43ad9;fill-opacity:1;stroke:#b43ad9;stroke-width:0.09453182;stroke-linecap:butt;stroke-linejoin:bevel;stroke-miterlimit:4;stroke-dasharray:none;stroke-dashoffset:0;stroke-opacity:1"
           d="m 131.99464,985.92893 39.00014,-53.15877 c -0.4153,-0.3047 -0.94749,-0.4503 -1.49919,-0.3656 l -43.26018,6.64627 c -1.10341,0.1695 -1.85516,1.1942 -1.68564,2.2976 l 6.64619,43.2602 c 0.0848,0.5517 0.38338,1.0156 0.79868,1.3203 z"
           id="path4326-5"
           inkscape:connector-curvature="0" />
      </g>
      <rect
         ry="0"
         rx="0"
         y="988.36218"
         x="0"
         height="64"
         width="64"
         id="rect4481"
         style="opacity:1;fill:none;fill-opacity:1;stroke:none;stroke-width:1;stroke-linecap:butt;stroke-linejoin:bevel;stroke-miterlimit:4;stroke-dasharray:none;stroke-dashoffset:0;stroke-opacity:1" />
    </g>
    <g
       inkscape:label="#g4483"
       id="i48"
       transform="matrix(0.74999991,0,0,0.75,64.000003,263.09055)">
      <g
         id="g4533"
         transform="translate(-120.54681,62.862926)">
        <path
           style="opacity:1;fill:#00b561;fill-opacity:1;stroke:#00b561;stroke-width:0.09453182;stroke-linecap:butt;stroke-linejoin:bevel;stroke-miterlimit:4;stroke-dasharray:none;stroke-dashoffset:0;stroke-opacity:1"
           d="m 129.12063,929.05676 c -0.42238,0.2948 -0.73173,0.7515 -0.82948,1.301 l -7.66537,43.09127 c -0.19552,1.0991 0.53185,2.1413 1.63094,2.3368 l 43.09127,7.6653 c 0.54955,0.098 1.08488,-0.035 1.50726,-0.3299 l -37.73462,-54.06447 z"
           id="path4535"
           inkscape:connector-curvature="0" />
        <path
           style="opacity:1;fill:#00ca61;fill-opacity:1;stroke:#00b561;stroke-width:0.09453182;stroke-linecap:butt;stroke-linejoin:bevel;stroke-miterlimit:4;stroke-dasharray:none;stroke-dashoffset:0;stroke-opacity:1"
           d="m 129.12063,929.05676 37.73462,54.06447 c 0.42238,-0.2948 0.73188,-0.7516 0.82964,-1.3011 l 7.66536,-43.0913 c 0.19552,-1.0991 -0.53185,-2.1413 -1.63094,-2.3368 l -43.09127,-7.66527 c -0.54954,-0.098 -1.08503,0.035 -1.50741,0.33 z"
           id="path4537"
           inkscape:connector-curvature="0" />
        <path
           inkscape:connector-curvature="0"
           id="path4539"
           d="m 140.20129,927.88326 c -0.46276,0.2263 -0.83875,0.6298 -1.02,1.1578 l -14.2118,41.39607 c -0.36249,1.0559 0.19566,2.1976 1.25152,2.5601 l 41.39613,14.2118 c 0.52793,0.1813 1.07734,0.1324 1.5401,-0.094 l -28.95595,-59.23197 z"
           style="opacity:1;fill:#f89e20;fill-opacity:1;stroke:#f89e20;stroke-width:0.09453182;stroke-linecap:butt;stroke-linejoin:bevel;stroke-miterlimit:4;stroke-dasharray:none;stroke-dashoffset:0;stroke-opacity:1" />
        <path
           inkscape:connector-curvature="0"
           id="path4541"
           d="m 140.20129,927.88326 28.95595,59.23197 c 0.46275,-0.2262 0.83892,-0.6299 1.02016,-1.1578 l 14.21179,-41.3961 c 0.36249,-1.0559 -0.19566,-2.1976 -1.25151,-2.5601 l -41.39613,-14.21177 c -0.52793,-0.1813 -1.07751,-0.1324 -1.54026,0.094 z"
           style="opacity:1;fill:#f8b520;fill-opacity:1;stroke:#f89e20;stroke-width:0.09453182;stroke-linecap:butt;stroke-linejoin:bevel;stroke-miterlimit:4;stroke-dasharray:none;stroke-dashoffset:0;stroke-opacity:1" />
        <path
           inkscape:connector-curvature="0"
           id="path4543"
           d="m 131.99464,985.92893 c 0.41531,0.3047 0.94737,0.4502 1.49907,0.3654 l 43.26017,-6.6462 c 1.10341,-0.1695 1.85517,-1.1942 1.68565,-2.2976 l -6.64619,-43.26017 c -0.0848,-0.5517 -0.38325,-1.0155 -0.79856,-1.3202 l -39.00014,53.15877 z"
           style="opacity:1;fill:#ce3ad9;fill-opacity:1;stroke:#b43ad9;stroke-width:0.09453182;stroke-linecap:butt;stroke-linejoin:bevel;stroke-miterlimit:4;stroke-dasharray:none;stroke-dashoffset:0;stroke-opacity:1" />
        <path
           inkscape:connector-curvature="0"
           id="path4545"
           d="m 131.99464,985.92893 39.00014,-53.15877 c -0.4153,-0.3047 -0.94749,-0.4503 -1.49919,-0.3656 l -43.26018,6.64627 c -1.10341,0.1695 -1.85516,1.1942 -1.68564,2.2976 l 6.64619,43.2602 c 0.0848,0.5517 0.38338,1.0156 0.79868,1.3203 z"
           style="opacity:1;fill:#b43ad9;fill-opacity:1;stroke:#b43ad9;stroke-width:0.09453182;stroke-linecap:butt;stroke-linejoin:bevel;stroke-miterlimit:4;stroke-dasharray:none;stroke-dashoffset:0;stroke-opacity:1" />
      </g>
      <rect
         style="opacity:1;fill:none;fill-opacity:1;stroke:none;stroke-width:1;stroke-linecap:butt;stroke-linejoin:bevel;stroke-miterlimit:4;stroke-dasharray:none;stroke-dashoffset:0;stroke-opacity:1"
         id="rect4547"
         width="64"
         height="64"
         x="0"
         y="988.36218"
         rx="0"
         ry="0" />
    </g>
    <g
       transform="matrix(0.49999994,0,0,0.5,112,526.1811)"
       id="i32"
       inkscape:label="#g4483">
      <g
         transform="translate(-120.54681,62.862926)"
         id="g4551">
        <path
           inkscape:connector-curvature="0"
           id="path4553"
           d="m 129.12063,929.05676 c -0.42238,0.2948 -0.73173,0.7515 -0.82948,1.301 l -7.66537,43.09127 c -0.19552,1.0991 0.53185,2.1413 1.63094,2.3368 l 43.09127,7.6653 c 0.54955,0.098 1.08488,-0.035 1.50726,-0.3299 l -37.73462,-54.06447 z"
           style="opacity:1;fill:#00b561;fill-opacity:1;stroke:#00b561;stroke-width:0.09453182;stroke-linecap:butt;stroke-linejoin:bevel;stroke-miterlimit:4;stroke-dasharray:none;stroke-dashoffset:0;stroke-opacity:1" />
        <path
           inkscape:connector-curvature="0"
           id="path4555"
           d="m 129.12063,929.05676 37.73462,54.06447 c 0.42238,-0.2948 0.73188,-0.7516 0.82964,-1.3011 l 7.66536,-43.0913 c 0.19552,-1.0991 -0.53185,-2.1413 -1.63094,-2.3368 l -43.09127,-7.66527 c -0.54954,-0.098 -1.08503,0.035 -1.50741,0.33 z"
           style="opacity:1;fill:#00ca61;fill-opacity:1;stroke:#00b561;stroke-width:0.09453182;stroke-linecap:butt;stroke-linejoin:bevel;stroke-miterlimit:4;stroke-dasharray:none;stroke-dashoffset:0;stroke-opacity:1" />
        <path
           style="opacity:1;fill:#f89e20;fill-opacity:1;stroke:#f89e20;stroke-width:0.09453182;stroke-linecap:butt;stroke-linejoin:bevel;stroke-miterlimit:4;stroke-dasharray:none;stroke-dashoffset:0;stroke-opacity:1"
           d="m 140.20129,927.88326 c -0.46276,0.2263 -0.83875,0.6298 -1.02,1.1578 l -14.2118,41.39607 c -0.36249,1.0559 0.19566,2.1976 1.25152,2.5601 l 41.39613,14.2118 c 0.52793,0.1813 1.07734,0.1324 1.5401,-0.094 l -28.95595,-59.23197 z"
           id="path4557"
           inkscape:connector-curvature="0" />
        <path
           style="opacity:1;fill:#f8b520;fill-opacity:1;stroke:#f89e20;stroke-width:0.09453182;stroke-linecap:butt;stroke-linejoin:bevel;stroke-miterlimit:4;stroke-dasharray:none;stroke-dashoffset:0;stroke-opacity:1"
           d="m 140.20129,927.88326 28.95595,59.23197 c 0.46275,-0.2262 0.83892,-0.6299 1.02016,-1.1578 l 14.21179,-41.3961 c 0.36249,-1.0559 -0.19566,-2.1976 -1.25151,-2.5601 l -41.39613,-14.21177 c -0.52793,-0.1813 -1.07751,-0.1324 -1.54026,0.094 z"
           id="path4559"
           inkscape:connector-curvature="0" />
        <path
           style="opacity:1;fill:#ce3ad9;fill-opacity:1;stroke:#b43ad9;stroke-width:0.09453182;stroke-linecap:butt;stroke-linejoin:bevel;stroke-miterlimit:4;stroke-dasharray:none;stroke-dashoffset:0;stroke-opacity:1"
           d="m 131.99464,985.92893 c 0.41531,0.3047 0.94737,0.4502 1.49907,0.3654 l 43.26017,-6.6462 c 1.10341,-0.1695 1.85517,-1.1942 1.68565,-2.2976 l -6.64619,-43.26017 c -0.0848,-0.5517 -0.38325,-1.0155 -0.79856,-1.3202 l -39.00014,53.15877 z"
           id="path4561"
           inkscape:connector-curvature="0" />
        <path
           style="opacity:1;fill:#b43ad9;fill-opacity:1;stroke:#b43ad9;stroke-width:0.09453182;stroke-linecap:butt;stroke-linejoin:bevel;stroke-miterlimit:4;stroke-dasharray:none;stroke-dashoffset:0;stroke-opacity:1"
           d="m 131.99464,985.92893 39.00014,-53.15877 c -0.4153,-0.3047 -0.94749,-0.4503 -1.49919,-0.3656 l -43.26018,6.64627 c -1.10341,0.1695 -1.85516,1.1942 -1.68564,2.2976 l 6.64619,43.2602 c 0.0848,0.5517 0.38338,1.0156 0.79868,1.3203 z"
           id="path4563"
           inkscape:connector-curvature="0" />
      </g>
      <rect
         ry="0"
         rx="0"
         y="988.36218"
         x="0"
         height="64"
         width="64"
         id="rect4565"
         style="opacity:1;fill:none;fill-opacity:1;stroke:none;stroke-width:1;stroke-linecap:butt;stroke-linejoin:bevel;stroke-miterlimit:4;stroke-dasharray:none;stroke-dashoffset:0;stroke-opacity:1" />
    </g>
    <g
       inkscape:label="#g4483"
       id="i24"
       transform="matrix(0.37499995,0,0,0.375,144,657.72637)">
      <g
         id="g4569"
         transform="translate(-120.54681,62.862926)">
        <path
           style="opacity:1;fill:#00b561;fill-opacity:1;stroke:#00b561;stroke-width:0.09453182;stroke-linecap:butt;stroke-linejoin:bevel;stroke-miterlimit:4;stroke-dasharray:none;stroke-dashoffset:0;stroke-opacity:1"
           d="m 129.12063,929.05676 c -0.42238,0.2948 -0.73173,0.7515 -0.82948,1.301 l -7.66537,43.09127 c -0.19552,1.0991 0.53185,2.1413 1.63094,2.3368 l 43.09127,7.6653 c 0.54955,0.098 1.08488,-0.035 1.50726,-0.3299 l -37.73462,-54.06447 z"
           id="path4571"
           inkscape:connector-curvature="0" />
        <path
           style="opacity:1;fill:#00ca61;fill-opacity:1;stroke:#00b561;stroke-width:0.09453182;stroke-linecap:butt;stroke-linejoin:bevel;stroke-miterlimit:4;stroke-dasharray:none;stroke-dashoffset:0;stroke-opacity:1"
           d="m 129.12063,929.05676 37.73462,54.06447 c 0.42238,-0.2948 0.73188,-0.7516 0.82964,-1.3011 l 7.66536,-43.0913 c 0.19552,-1.0991 -0.53185,-2.1413 -1.63094,-2.3368 l -43.09127,-7.66527 c -0.54954,-0.098 -1.08503,0.035 -1.50741,0.33 z"
           id="path4573"
           inkscape:connector-curvature="0" />
        <path
           inkscape:connector-curvature="0"
           id="path4575"
           d="m 140.20129,927.88326 c -0.46276,0.2263 -0.83875,0.6298 -1.02,1.1578 l -14.2118,41.39607 c -0.36249,1.0559 0.19566,2.1976 1.25152,2.5601 l 41.39613,14.2118 c 0.52793,0.1813 1.07734,0.1324 1.5401,-0.094 l -28.95595,-59.23197 z"
           style="opacity:1;fill:#f89e20;fill-opacity:1;stroke:#f89e20;stroke-width:0.09453182;stroke-linecap:butt;stroke-linejoin:bevel;stroke-miterlimit:4;stroke-dasharray:none;stroke-dashoffset:0;stroke-opacity:1" />
        <path
           inkscape:connector-curvature="0"
           id="path4577"
           d="m 140.20129,927.88326 28.95595,59.23197 c 0.46275,-0.2262 0.83892,-0.6299 1.02016,-1.1578 l 14.21179,-41.3961 c 0.36249,-1.0559 -0.19566,-2.1976 -1.25151,-2.5601 l -41.39613,-14.21177 c -0.52793,-0.1813 -1.07751,-0.1324 -1.54026,0.094 z"
           style="opacity:1;fill:#f8b520;fill-opacity:1;stroke:#f89e20;stroke-width:0.09453182;stroke-linecap:butt;stroke-linejoin:bevel;stroke-miterlimit:4;stroke-dasharray:none;stroke-dashoffset:0;stroke-opacity:1" />
        <path
           inkscape:connector-curvature="0"
           id="path4579"
           d="m 131.99464,985.92893 c 0.41531,0.3047 0.94737,0.4502 1.49907,0.3654 l 43.26017,-6.6462 c 1.10341,-0.1695 1.85517,-1.1942 1.68565,-2.2976 l -6.64619,-43.26017 c -0.0848,-0.5517 -0.38325,-1.0155 -0.79856,-1.3202 l -39.00014,53.15877 z"
           style="opacity:1;fill:#ce3ad9;fill-opacity:1;stroke:#b43ad9;stroke-width:0.09453182;stroke-linecap:butt;stroke-linejoin:bevel;stroke-miterlimit:4;stroke-dasharray:none;stroke-dashoffset:0;stroke-opacity:1" />
        <path
           inkscape:connector-curvature="0"
           id="path4581"
           d="m 131.99464,985.92893 39.00014,-53.15877 c -0.4153,-0.3047 -0.94749,-0.4503 -1.49919,-0.3656 l -43.26018,6.64627 c -1.10341,0.1695 -1.85516,1.1942 -1.68564,2.2976 l 6.64619,43.2602 c 0.0848,0.5517 0.38338,1.0156 0.79868,1.3203 z"
           style="opacity:1;fill:#b43ad9;fill-opacity:1;stroke:#b43ad9;stroke-width:0.09453182;stroke-linecap:butt;stroke-linejoin:bevel;stroke-miterlimit:4;stroke-dasharray:none;stroke-dashoffset:0;stroke-opacity:1" />
      </g>
      <rect
         style="opacity:1;fill:none;fill-opacity:1;stroke:none;stroke-width:1;stroke-linecap:butt;stroke-linejoin:bevel;stroke-miterlimit:4;stroke-dasharray:none;stroke-dashoffset:0;stroke-opacity:1"
         id="rect4583"
         width="64"
         height="64"
         x="0"
         y="988.36218"
         rx="0"
         ry="0" />
    </g>
    <g
       transform="matrix(0.24999997,0,0,0.25,168,789.27162)"
       id="i16"
       inkscape:label="#g4483">
      <g
         transform="translate(-120.54681,62.862926)"
         id="g4587">
        <path
           inkscape:connector-curvature="0"
           id="path4589"
           d="m 129.12063,929.05676 c -0.42238,0.2948 -0.73173,0.7515 -0.82948,1.301 l -7.66537,43.09127 c -0.19552,1.0991 0.53185,2.1413 1.63094,2.3368 l 43.09127,7.6653 c 0.54955,0.098 1.08488,-0.035 1.50726,-0.3299 l -37.73462,-54.06447 z"
           style="opacity:1;fill:#00b561;fill-opacity:1;stroke:#00b561;stroke-width:0.09453182;stroke-linecap:butt;stroke-linejoin:bevel;stroke-miterlimit:4;stroke-dasharray:none;stroke-dashoffset:0;stroke-opacity:1" />
        <path
           inkscape:connector-curvature="0"
           id="path4591"
           d="m 129.12063,929.05676 37.73462,54.06447 c 0.42238,-0.2948 0.73188,-0.7516 0.82964,-1.3011 l 7.66536,-43.0913 c 0.19552,-1.0991 -0.53185,-2.1413 -1.63094,-2.3368 l -43.09127,-7.66527 c -0.54954,-0.098 -1.08503,0.035 -1.50741,0.33 z"
           style="opacity:1;fill:#00ca61;fill-opacity:1;stroke:#00b561;stroke-width:0.09453182;stroke-linecap:butt;stroke-linejoin:bevel;stroke-miterlimit:4;stroke-dasharray:none;stroke-dashoffset:0;stroke-opacity:1" />
        <path
           style="opacity:1;fill:#f89e20;fill-opacity:1;stroke:#f89e20;stroke-width:0.09453182;stroke-linecap:butt;stroke-linejoin:bevel;stroke-miterlimit:4;stroke-dasharray:none;stroke-dashoffset:0;stroke-opacity:1"
           d="m 140.20129,927.88326 c -0.46276,0.2263 -0.83875,0.6298 -1.02,1.1578 l -14.2118,41.39607 c -0.36249,1.0559 0.19566,2.1976 1.25152,2.5601 l 41.39613,14.2118 c 0.52793,0.1813 1.07734,0.1324 1.5401,-0.094 l -28.95595,-59.23197 z"
           id="path4593"
           inkscape:connector-curvature="0" />
        <path
           style="opacity:1;fill:#f8b520;fill-opacity:1;stroke:#f89e20;stroke-width:0.09453182;stroke-linecap:butt;stroke-linejoin:bevel;stroke-miterlimit:4;stroke-dasharray:none;stroke-dashoffset:0;stroke-opacity:1"
           d="m 140.20129,927.88326 28.95595,59.23197 c 0.46275,-0.2262 0.83892,-0.6299 1.02016,-1.1578 l 14.21179,-41.3961 c 0.36249,-1.0559 -0.19566,-2.1976 -1.25151,-2.5601 l -41.39613,-14.21177 c -0.52793,-0.1813 -1.07751,-0.1324 -1.54026,0.094 z"
           id="path4595"
           inkscape:connector-curvature="0" />
        <path
           style="opacity:1;fill:#ce3ad9;fill-opacity:1;stroke:#b43ad9;stroke-width:0.09453182;stroke-linecap:butt;stroke-linejoin:bevel;stroke-miterlimit:4;stroke-dasharray:none;stroke-dashoffset:0;stroke-opacity:1"
           d="m 131.99464,985.92893 c 0.41531,0.3047 0.94737,0.4502 1.49907,0.3654 l 43.26017,-6.6462 c 1.10341,-0.1695 1.85517,-1.1942 1.68565,-2.2976 l -6.64619,-43.26017 c -0.0848,-0.5517 -0.38325,-1.0155 -0.79856,-1.3202 l -39.00014,53.15877 z"
           id="path4597"
           inkscape:connector-curvature="0" />
        <path
           style="opacity:1;fill:#b43ad9;fill-opacity:1;stroke:#b43ad9;stroke-width:0.09453182;stroke-linecap:butt;stroke-linejoin:bevel;stroke-miterlimit:4;stroke-dasharray:none;stroke-dashoffset:0;stroke-opacity:1"
           d="m 131.99464,985.92893 39.00014,-53.15877 c -0.4153,-0.3047 -0.94749,-0.4503 -1.49919,-0.3656 l -43.26018,6.64627 c -1.10341,0.1695 -1.85516,1.1942 -1.68564,2.2976 l 6.64619,43.2602 c 0.0848,0.5517 0.38338,1.0156 0.79868,1.3203 z"
           id="path4599"
           inkscape:connector-curvature="0" />
      </g>
      <rect
         ry="0"
         rx="0"
         y="988.36218"
         x="0"
         height="64"
         width="64"
         id="rect4601"
         style="opacity:1;fill:none;fill-opacity:1;stroke:none;stroke-width:1;stroke-linecap:butt;stroke-linejoin:bevel;stroke-miterlimit:4;stroke-dasharray:none;stroke-dashoffset:0;stroke-opacity:1" />
    </g>
  </g>
</svg>
